HIERARCHY
ROOT hip
{
	OFFSET 0.000000 0.000000 0.000000 
	CHANNELS 6 Xposition Yposition Zposition Xrotation Zrotation Yrotation
	JOINT abdomen
	{
		OFFSET 0.000000 3.402643 0.000000 
		CHANNELS 3 Xrotation Zrotation Yrotation
		JOINT chest
		{
			OFFSET 0.000000 8.438565 -0.680529 
			CHANNELS 3 Xrotation Zrotation Yrotation
			JOINT neck
			{
				OFFSET 0.000000 10.207942 -0.272212 
				CHANNELS 3 Xrotation Zrotation Yrotation
				JOINT head
				{
					OFFSET 0.000000 3.130431 0.000000 
					CHANNELS 3 Xrotation Zrotation Yrotation
					End Site
					{
						OFFSET 0.000000 3.130435 0.000000 
					}
				}
			}
			JOINT lCollar
			{
				OFFSET 3.470700 6.669187 -0.816635 
				CHANNELS 3 Yrotation Zrotation Xrotation
				JOINT lShldr
				{
					OFFSET 3.198488 0.000000 0.000000 
					CHANNELS 3 Zrotation Yrotation Xrotation
					JOINT lForeArm
					{
						OFFSET 10.139888 0.000000 0.000000 
						CHANNELS 3 Yrotation Zrotation Xrotation
						JOINT lHand
						{
							OFFSET 8.370511 0.000000 0.000000 
							CHANNELS 3 Zrotation Yrotation Xrotation
							End Site
							{
								OFFSET 4.083176 0.000000 0.000000 
							}
						}
					}
				}
			}
			JOINT rCollar
			{
				OFFSET -3.470700 6.669187 -0.816635 
				CHANNELS 3 Yrotation Zrotation Xrotation
				JOINT rShldr
				{
					OFFSET -3.198488 0.000000 0.000000 
					CHANNELS 3 Zrotation Yrotation Xrotation
					JOINT rForeArm
					{
						OFFSET -10.139888 0.000000 0.000000 
						CHANNELS 3 Yrotation Zrotation Xrotation
						JOINT rHand
						{
							OFFSET -8.370511 0.000000 0.000000 
							CHANNELS 3 Zrotation Yrotation Xrotation
							End Site
							{
								OFFSET -4.083176 0.000000 0.000000 
							}
						}
					}
				}
			}
		}
	}
	JOINT lThigh
	{
		OFFSET 5.308129 -1.633274 1.361059 
		CHANNELS 3 Xrotation Zrotation Yrotation
		JOINT lShin
		{
			OFFSET -2.041588 -20.007561 0.000000 
			CHANNELS 3 Xrotation Zrotation Yrotation
			JOINT lFoot
			{
				OFFSET 0.000000 -19.190928 -1.224953 
				CHANNELS 3 Xrotation Yrotation Zrotation
				End Site
				{
					OFFSET 0.000000 -2.449906 4.627600 
				}
			}
		}
	}
	JOINT rThigh
	{
		OFFSET -5.308129 -1.633274 1.361059 
		CHANNELS 3 Xrotation Zrotation Yrotation
		JOINT rShin
		{
			OFFSET 2.041588 -20.007561 0.000000 
			CHANNELS 3 Xrotation Zrotation Yrotation
			JOINT rFoot
			{
				OFFSET 0.000000 -19.190928 -1.224953 
				CHANNELS 3 Xrotation Yrotation Zrotation
				End Site
				{
					OFFSET 0.000000 -2.449906 4.627600 
				}
			}
		}
	}
}
MOTION
Frames: 8
Frame Time: 0.033333
-0.440192 49.555843 2.679104 3.462766 -2.575807 -5.542909 0.000000 0.000000 0.000000 -1.967204 7.664806 8.258459 7.524451 9.179119 0.643773 -6.291527 -3.611264 -16.684643 0.462685 26.431433 24.279877 -101.179199 -5.750430 -3.773175 -38.232662 -2.893147 43.865532 -10.109199 11.706450 46.489494 -15.412409 -0.581261 24.370272 62.872883 25.393438 63.265049 9.683732 -9.125375 -15.719843 21.524601 0.209247 -10.151164 9.696615 9.482166 20.379553 57.024853 1.337865 -2.155687 5.283845 6.897019 -19.508253 -1.676537 4.385724 2.483706 11.026102 1.793457 0.443820 -7.171888 -12.600902 27.778122 
-0.862558 49.594486 2.595627 3.745194 -3.891709 -4.953182 0.000000 0.000000 0.000000 -1.537327 8.799648 8.529490 6.638412 8.817847 0.622932 -6.053794 -3.380115 -17.052580 1.196028 27.117090 23.906694 -101.413025 -6.647188 -3.632388 -38.254921 -3.174902 45.657703 -11.065442 11.286239 46.244282 -15.010143 -1.397188 24.151999 63.260029 25.917786 63.367817 10.336902 -10.015290 -16.227091 20.505508 0.081515 -10.299640 3.355980 12.632428 21.679802 64.510406 3.699049 -1.921834 7.224353 7.007044 -19.161533 1.122949 6.395252 3.004235 8.917995 1.267624 0.171731 -7.860815 -13.165364 27.134283 
-1.239041 49.615856 2.405359 3.897144 -4.691579 -4.655046 0.000000 0.000000 0.000000 -0.759058 9.356900 8.662182 5.905776 7.880498 0.552422 -6.243588 -2.953396 -16.868952 2.596829 26.951897 23.236101 -101.174271 -7.486585 -3.760469 -37.979958 -3.331576 43.904339 -9.571723 10.444406 46.830978 -13.728280 -2.653048 23.883959 64.050659 26.947239 63.589027 10.640206 -11.106139 -16.025646 20.091654 -0.135735 -10.402013 -2.803647 14.711055 22.341995 69.073868 5.671025 -1.605263 7.477115 6.649938 -18.714499 3.774990 7.833818 3.363959 7.000373 0.751426 -0.081773 -7.975857 -13.134012 27.328037 
-1.536088 49.644600 2.124244 4.182125 -5.001776 -4.833539 0.000000 0.000000 0.000000 -0.011727 9.453442 8.663785 5.451293 6.464644 0.452959 -6.432044 -2.476656 -16.138803 4.436727 25.920723 22.410561 -100.386436 -8.084597 -4.221457 -37.467480 -3.632728 39.216164 -6.435432 9.278700 47.917126 -11.941900 -4.609174 23.559698 65.482811 28.664999 64.019287 10.443878 -11.799597 -15.296286 20.329552 -0.324431 -10.402669 -8.485318 15.714875 22.404573 69.891495 6.593982 -1.423360 6.958104 6.421787 -19.205469 5.565634 8.719342 3.596926 6.061029 0.448709 -0.222218 -8.066154 -12.423049 27.372150 
-1.723761 49.677189 1.843137 4.383369 -4.689289 -4.987554 0.000000 0.000000 0.000000 0.598271 8.809978 8.500547 5.184557 4.872964 0.333320 -6.435872 -2.130620 -15.127910 5.744071 24.692635 21.930626 -99.484901 -8.477761 -4.736379 -37.155602 -3.974494 33.873749 -3.400697 8.516489 48.903969 -10.568540 -6.923888 23.216162 67.247635 30.623283 64.555199 10.287601 -12.375065 -13.748196 20.827890 -0.554616 -10.367157 -13.084263 15.434485 21.875771 67.476181 6.624392 -1.356864 5.880483 7.040395 -19.883795 6.727499 8.729083 3.576772 6.051961 0.438986 -0.222944 -8.992949 -11.869418 25.434855 
-1.846127 49.704510 1.572140 4.589728 -3.765561 -4.893411 0.000000 0.000000 0.000000 0.949534 7.348036 8.134610 4.951936 3.085920 0.196081 -6.204109 -1.750670 -14.303783 6.568555 23.334766 21.719128 -98.395058 -8.881267 -5.377285 -37.083267 -4.206330 29.803589 -1.324845 8.508859 49.574524 -9.581296 -9.260116 22.926029 69.033600 32.430325 65.145348 10.359552 -13.077654 -11.974466 21.077332 -0.522967 -10.333063 -16.785215 14.049314 20.908329 62.279228 6.039015 -1.319301 4.454313 8.036044 -20.184517 7.572053 8.050747 3.344224 6.486675 0.614023 -0.168572 -10.465123 -12.068357 22.493593 
-1.964006 49.746426 1.337877 4.742207 -2.734451 -4.820140 0.000000 0.000000 0.000000 1.142415 5.574696 7.692869 4.795863 1.103515 0.049007 -5.807892 -1.176719 -13.655424 7.021442 21.541031 21.754435 -96.801254 -9.280970 -6.293490 -37.057873 -4.004858 28.101669 -0.643656 9.184711 49.870148 -8.960740 -11.396323 22.663095 70.724968 33.992050 65.721008 10.871029 -13.681477 -10.538241 20.926905 -0.502788 -10.345264 -19.245995 12.594840 20.080202 55.211357 4.848952 -1.326919 2.983586 8.445786 -19.964306 8.766487 7.273096 3.105664 6.564669 0.701897 -0.122665 -11.645659 -12.298605 20.587921 
-2.081645 49.789799 1.151475 4.999242 -1.906918 -4.953947 0.000000 0.000000 0.000000 1.068150 3.913328 7.312478 4.630421 -0.888671 -0.097796 -5.233255 -0.637431 -13.038027 7.498260 19.456978 21.835804 -95.089264 -9.614656 -7.284896 -36.984501 -3.218651 28.416206 -0.982538 10.231836 49.851997 -8.591924 -13.421291 22.402315 72.434593 35.068512 66.426056 11.890231 -14.446974 -9.399446 20.684395 -0.692623 -10.406427 -20.633242 11.707205 19.580494 47.597183 2.974389 -1.389571 2.090302 8.181220 -19.756952 10.094620 6.707248 2.919796 6.395151 0.633124 -0.132855 -12.546791 -12.211761 19.956051 
